<svg preserveAspectRatio="xMidYMid meet" data-bbox="20 20 160 160" viewBox="20 20 160 160" height="200" width="200" xmlns="http://www.w3.org/2000/svg" data-type="color" role="img" aria-label="Homepage"><defs><style>#comp-kgtbtznj svg [data-color="1"] {fill: #E9741C;}
#comp-kgtbtznj svg [data-color="2"] {fill: #F0B487;}</style></defs>
    <g>
        <path fill="#e9741c" d="M180 100c0 44.183-35.817 80-80 80s-80-35.817-80-80 35.817-80 80-80 80 35.817 80 80z" data-color="1"></path>
        <path d="M100 180c44.2 0 80-35.8 80-80 0-1.8-.1-3.6-.2-5.4l-31.7-29.5c-1.4-1.4-3.8-1.4-5.2 0l-49 49.3h-21c-4 0-7.7-1.6-10.5-4.4L48.2 96.4c-1.4-1.4-3.7-1.4-5.1 0L22 117.6c8 35.7 39.9 62.4 78 62.4z" fill="#f2ac77" data-color="2"></path>
        <path fill="#f2ac77" d="M90.5 67c0 6.793-5.507 12.3-12.3 12.3-6.793 0-12.3-5.507-12.3-12.3 0-6.793 5.507-12.3 12.3-12.3 6.793 0 12.3 5.507 12.3 12.3z" data-color="2"></path>
    </g>
</svg>